<svg width="33" height="26" viewBox="0 0 33 26" fill="none" xmlns="http://www.w3.org/2000/svg">
<path fill-rule="evenodd" clip-rule="evenodd" d="M13.6321 0.688052L3.60805 4.00531C2.30582 4.43625 1.8661 4.69046 1.43336 5.0564C1.00062 5.42235 0.681158 5.86487 0.469883 6.39102C0.258607 6.91716 0.155518 7.41486 0.155518 8.78777V23.7661C0.155518 24.4336 0.224948 24.6756 0.355324 24.9196C0.485701 25.1637 0.677022 25.3552 0.920805 25.4857C1.16459 25.6162 1.40639 25.6857 2.07322 25.6857H30.8991C31.5659 25.6857 31.8077 25.6162 32.0515 25.4857C32.2953 25.3552 32.4866 25.1637 32.617 24.9196C32.7474 24.6756 32.8168 24.4336 32.8168 23.7661V8.75484C32.8168 7.39118 32.7156 6.89702 32.5077 6.37391C32.2997 5.85081 31.985 5.41008 31.5578 5.04383C31.1307 4.67759 30.6963 4.42185 29.4073 3.98053L19.8845 0.720191C18.5429 0.260842 18.0804 0.141504 17.5456 0.0618076C17.0108 -0.017889 16.5132 -0.0204465 15.9777 0.0537482C15.4421 0.127943 14.9784 0.24252 13.6321 0.688052ZM2.64875 23.19H10.9175V10.5599C10.9175 10.0077 11.3652 9.55994 11.9175 9.55994H21.0548C21.6071 9.55994 22.0548 10.0077 22.0548 10.5599V23.19H30.3236V8.75484C30.3236 7.78756 30.2885 7.54145 30.1911 7.29663C30.1326 7.14932 30.0562 7.04241 29.9359 6.93927C29.736 6.76787 29.5147 6.65496 28.6004 6.34192L19.0776 3.08157C17.9373 2.69116 17.5658 2.58802 17.1784 2.53029C16.8786 2.48561 16.6198 2.48428 16.3195 2.52588C15.9315 2.57962 15.559 2.67893 14.4147 3.05761L4.39066 6.37486C3.46807 6.68017 3.24479 6.79166 3.04236 6.96284C2.92041 7.06596 2.84277 7.17351 2.78323 7.32178C2.6844 7.5679 2.64875 7.81511 2.64875 8.78777V23.19Z" fill="white"/>
</svg>
